<?xml version="1.0" encoding="UTF-8"?>
<svg width="32" height="32" version="1.1" viewBox="0 0 32 32" xmlns="http://www.w3.org/2000/svg">
    <g>
        <path d="m10 13-8.8516 8.8516a16 16 0 0 0 4.0801 5.9199l9.7715-9.7715-5-5zm-4.6191 14.92a16 16 0 0 0 0.73633 0.59766 16 16 0 0 1-0.73633-0.59766zm1.5156 1.1992a16 16 0 0 0 0.82227 0.51367 16 16 0 0 1-0.82227-0.51367zm17.52 0.4375a16 16 0 0 1-0.2207 0.14258 16 16 0 0 0 0.2207-0.14258zm-15.863 0.57617a16 16 0 0 0 0.89258 0.41406 16 16 0 0 1-0.89258-0.41406zm14.443 0.20898a16 16 0 0 1-0.48242 0.23242 16 16 0 0 0 0.48242-0.23242zm-12.682 0.59375a16 16 0 0 0 1.0449 0.33594 16 16 0 0 1-1.0449-0.33594zm11.066 0.095703a16 16 0 0 1-0.68555 0.22656 16 16 0 0 0 0.68555-0.22656zm-9.2266 0.48633a16 16 0 0 0 1.2891 0.24414 16 16 0 0 1-1.2891-0.24414zm7.5098 0.03125a16 16 0 0 1-0.95117 0.18555 16 16 0 0 0 0.95117-0.18555zm-5.6016 0.32617a16 16 0 0 0 1.9375 0.125 16 16 0 0 1-1.9375-0.125zm1.9375 0.125a16 16 0 0 0 1.8496-0.12109 16 16 0 0 1-1.8496 0.12109z" fill="#3e7213"/>
        <path d="m23 10-17.785 17.785a16 16 0 0 0 10.785 4.2148 16 16 0 0 0 15.738-13.262l-8.7383-8.7383z" fill="#224c00"/>
        <path d="m16 0a16 16 0 0 0-16 16 16 16 0 0 0 1.1484 5.8516l8.8516-8.8516 5 5 8-8 8.7383 8.7383a16 16 0 0 0 0.26172-2.7383 16 16 0 0 0-16-16z" fill="#bae397"/>
    </g>
</svg>
